# xmcd CD database file
#
# Track frame offsets:
#	150
#	12145
#	26583
#	45415
#	63125
#	88785
#	99697
#	111091
#	126385
#	143273
#	164125
#	177024
#
# Disc length: 2865 seconds
#
# Revision: 1
# Processed by: cddbd v1.5.2PL0 Copyright (c) Steve Scherf et al.
# Submitted via: CDex 1.51
#
DISCID=950b2f0c
DTITLE=Cotton Candies - Lover come Back to me
DYEAR=2008
DGENRE=Jazz
TTITLE0=Diga Diga Doo
TTITLE1=Am I blue
TTITLE2=Is you is, Or is you ain't my baby
TTITLE3=The Lonely
TTITLE4=Lover come back to me
TTITLE5=Bue skies
TTITLE6=I'm biginnin' to see the light
TTITLE7=Shower
TTITLE8=My blue heaven
TTITLE9=Time marches on
TTITLE10=Boogie woogie boogie
TTITLE11=Sing, sing, sing
EXTD=YEAR: 2008
EXTT0=
EXTT1=
EXTT2=
EXTT3=
EXTT4=
EXTT5=
EXTT6=
EXTT7=
EXTT8=
EXTT9=
EXTT10=
EXTT11=
PLAYORDER=
